<svg width="100" height="100" viewBox="0 0 100 100" fill="none" xmlns="http://www.w3.org/2000/svg">
  <g clip-path="url(#clip0_2107_1006)">
    <rect width="100" height="100" rx="50" fill="url(#paint0_linear_2107_1006)"/>
    <g filter="url(#filter0_dd_2107_1006)">
      <path d="M78.9096 41.4814C77.8888 30.0007 68.245 21 56.4989 21C48.1963 21 40.944 25.497 37.0449 32.1882C35.353 31.4248 33.4756 31 31.4989 31C25.094 31 19.7308 35.4604 18.3462 41.4444C12.8306 43.9694 8.9989 49.5372 8.9989 56C8.9989 63.321 13.7892 70.0982 20.5009 72.0002C23.0009 72.7087 23.6585 72.9997 25.4754 72.9997H74.5215C74.5855 72.9997 74.6494 72.999 74.713 72.9975C74.8081 72.9992 74.9034 73 74.9989 73C83.8355 73 90.9989 65.8366 90.9989 57C90.9989 49.5125 85.8558 43.2263 78.9096 41.4814Z" fill="url(#paint1_linear_2107_1006)"/>
    </g>
    <circle cx="25.5009" cy="56.5" r="16.5" fill="url(#paint2_linear_2107_1006)"/>
    <circle cx="31.4995" cy="44.5" r="13.5" fill="url(#paint3_linear_2107_1006)"/>
    <circle cx="56.4995" cy="43.5" r="22.5" fill="url(#paint4_linear_2107_1006)"/>
    <circle cx="74.9995" cy="57" r="16" fill="url(#paint5_linear_2107_1006)"/>
    <path d="M57.9999 34.5C57.9999 33.6716 57.3283 33 56.4999 33C55.6715 33 54.9999 33.6716 54.9999 34.5V40.8641C54.9999 41.4914 54.4913 42 53.864 42H47.4999C46.6715 42 45.9999 42.6716 45.9999 43.5C45.9999 44.3284 46.6715 45 47.4999 45H53.864C54.4913 45 54.9999 45.5086 54.9999 46.1359V52.5C54.9999 53.3284 55.6715 54 56.4999 54C57.3283 54 57.9999 53.3284 57.9999 52.5V46.1359C57.9999 45.5086 58.5084 45 59.1358 45H65.4999C66.3283 45 66.9999 44.3284 66.9999 43.5C66.9999 42.6716 66.3283 42 65.4999 42H59.1358C58.5084 42 57.9999 41.4914 57.9999 40.8641V34.5Z" fill="#76C127"/>
  </g>
  <defs>
    <filter id="filter0_dd_2107_1006" x="-5.91651" y="6.08459" width="111.831" height="90.6309" filterUnits="userSpaceOnUse" color-interpolation-filters="sRGB">
      <feFlood flood-opacity="0" result="BackgroundImageFix"/>
      <feColorMatrix in="SourceAlpha" type="matrix" values="0 0 0 0 0 0 0 0 0 0 0 0 0 0 0 0 0 0 127 0" result="hardAlpha"/>
      <feOffset dy="8.80009"/>
      <feGaussianBlur stdDeviation="7.4577"/>
      <feColorMatrix type="matrix" values="0 0 0 0 0 0 0 0 0 0 0 0 0 0 0 0 0 0 0.09 0"/>
      <feBlend mode="normal" in2="BackgroundImageFix" result="effect1_dropShadow_2107_1006"/>
      <feColorMatrix in="SourceAlpha" type="matrix" values="0 0 0 0 0 0 0 0 0 0 0 0 0 0 0 0 0 0 127 0" result="hardAlpha"/>
      <feOffset/>
      <feGaussianBlur stdDeviation="7.4577"/>
      <feColorMatrix type="matrix" values="0 0 0 0 0 0 0 0 0 0 0 0 0 0 0 0 0 0 0.11 0"/>
      <feBlend mode="normal" in2="effect1_dropShadow_2107_1006" result="effect2_dropShadow_2107_1006"/>
      <feBlend mode="normal" in="SourceGraphic" in2="effect2_dropShadow_2107_1006" result="shape"/>
    </filter>
    <linearGradient id="paint0_linear_2107_1006" x1="61.1732" y1="100" x2="29.1061" y2="-25.3631" gradientUnits="userSpaceOnUse">
      <stop stop-color="#7DB300"/>
      <stop offset="0.958333" stop-color="#9FCE06"/>
    </linearGradient>
    <linearGradient id="paint1_linear_2107_1006" x1="47.7889" y1="22.4392" x2="49.0996" y2="60.0316" gradientUnits="userSpaceOnUse">
      <stop stop-color="white" stop-opacity="0.6"/>
      <stop offset="1" stop-color="white"/>
    </linearGradient>
    <linearGradient id="paint2_linear_2107_1006" x1="13.0686" y1="45.5" x2="34.6675" y2="70.7083" gradientUnits="userSpaceOnUse">
      <stop stop-color="white" stop-opacity="0.34"/>
      <stop offset="1" stop-color="white"/>
    </linearGradient>
    <linearGradient id="paint3_linear_2107_1006" x1="38.7035" y1="69.8049" x2="28.7753" y2="31" gradientUnits="userSpaceOnUse">
      <stop stop-color="white" stop-opacity="0.09"/>
      <stop offset="1" stop-color="white" stop-opacity="0.41"/>
    </linearGradient>
    <linearGradient id="paint4_linear_2107_1006" x1="69.3063" y1="25.406" x2="49.1189" y2="64.4755" gradientUnits="userSpaceOnUse">
      <stop stop-color="white"/>
      <stop offset="1" stop-color="white" stop-opacity="0.58"/>
    </linearGradient>
    <linearGradient id="paint5_linear_2107_1006" x1="84.1739" y1="45.1358" x2="62.4652" y2="67.8014" gradientUnits="userSpaceOnUse">
      <stop stop-color="white" stop-opacity="0.65"/>
      <stop offset="1" stop-color="white"/>
    </linearGradient>
    <clipPath id="clip0_2107_1006">
      <rect width="100" height="100" fill="white"/>
    </clipPath>
  </defs>
</svg>